<svg width="29" height="65" viewBox="0 0 29 65" fill="none" xmlns="http://www.w3.org/2000/svg">
<path fill-rule="evenodd" clip-rule="evenodd" d="M27.3504 62.8002C17.5075 61.4373 10.3419 53.6935 7.07267 43.1088C5.72965 38.728 5.53527 33.8693 6.00356 28.7893C6.86945 19.718 11.031 11.8414 17.1011 6.09771C17.1276 6.07116 17.1364 6.06231 17.1453 6.08886C17.163 6.11541 17.216 6.14196 17.2425 6.15966C17.2778 6.17736 17.2866 6.15966 17.2601 6.20391C10.819 12.1069 6.6839 21.4969 6.23328 30.9842C5.53527 44.5337 12.109 56.5344 21.9607 60.6674C23.613 61.3665 25.3447 61.8975 27.1472 62.1719C27.2709 62.3312 27.3416 62.5524 27.3504 62.8002Z" fill="white"/>
<path fill-rule="evenodd" clip-rule="evenodd" d="M2.8139 40.1706C3.61794 41.1264 4.89911 42.0645 6.27746 41.7016C6.34815 41.8078 6.71041 42.3388 6.76342 42.4185C6.82527 42.5158 6.94014 42.6132 7.02849 42.5335C7.0815 42.4981 7.12568 42.4185 7.07267 42.2946C6.86945 42.0468 6.67507 41.7901 6.44534 41.5246C6.0389 39.3741 5.44692 37.9403 4.20993 36.4889C2.77856 34.8251 1.31184 34.0817 0.401773 33.7719C0.269239 33.7365 0.14554 33.7011 0.0130061 33.6569C-0.0753501 34.4888 0.304581 35.7013 0.604993 36.3916C1.18814 37.8076 1.82431 39.0466 2.8139 40.1706Z" fill="white"/>
<path fill-rule="evenodd" clip-rule="evenodd" d="M14.6536 9.8767C14.5388 9.92095 13.8673 10.098 13.7877 9.9652C13.7612 9.9298 13.7966 9.79705 13.8584 9.7882C14.1058 9.76165 14.3797 9.74395 14.6183 9.69085C15.0512 8.32794 16.2529 7.73498 17.3573 7.50488C18.6827 7.23938 20.1406 7.64648 21.7045 7.86773C21.784 7.88543 21.8723 7.89428 21.943 7.89428C21.9165 7.94738 21.8812 7.98278 21.8458 8.03588C21.192 8.92974 20.1671 9.7528 19.1686 10.1599C18.4971 10.4431 17.6931 10.6024 16.9067 10.5759C16.0762 10.5405 15.3782 10.3546 14.6536 9.8767Z" fill="white"/>
<path fill-rule="evenodd" clip-rule="evenodd" d="M17.2425 6.15081C17.2955 6.16851 17.2955 6.15081 17.3927 6.09771C17.5782 5.92071 17.7373 5.81451 17.9228 5.64636C18.9831 5.65521 19.9904 5.33661 20.9446 4.6994C21.3687 4.4162 21.7928 4.07104 22.1462 3.65509C22.9945 2.74353 23.6748 1.40717 23.9841 0.185852C24.0017 0.115052 24.0106 0.0708007 24.0194 0C23.9399 0.0354004 23.8692 0.0708018 23.7897 0.106202C22.0756 0.796509 20.4145 1.11511 19.0361 2.45148C18.0995 3.34534 17.6136 4.42505 17.808 5.46936C17.5959 5.63751 17.375 5.79681 17.1718 5.99151C17.0834 6.07116 17.1895 6.15081 17.2425 6.15081Z" fill="white"/>
<path fill-rule="evenodd" clip-rule="evenodd" d="M11.0045 15.585C10.8897 15.647 10.2447 15.9833 10.1475 15.8682C10.1033 15.824 10.121 15.6824 10.1828 15.6558C10.4214 15.5673 10.7041 15.5054 10.9427 15.3992C11.031 14.4345 11.57 13.5318 12.6391 12.9123C14.2737 12.045 16.1292 12.1866 17.8786 12.0361C17.967 12.0273 18.0465 12.0273 18.126 12.0184C18.0995 12.0715 18.073 12.1158 18.0554 12.1689C17.4722 13.1778 16.5268 14.2663 15.5637 14.8859C14.9187 15.3195 14.1235 15.647 13.3283 15.8063C12.4889 15.9744 11.7732 15.8771 11.0045 15.585Z" fill="white"/>
<path fill-rule="evenodd" clip-rule="evenodd" d="M2.4428 30.4709C2.97294 31.6656 3.92719 32.9754 5.32322 33.0639C5.36739 33.1878 5.62363 33.7631 5.65897 33.8516C5.68548 33.9755 5.77383 34.1083 5.8887 34.0552C5.94171 34.0375 5.99472 33.9666 5.98589 33.8427C5.85335 33.5241 5.68548 33.2763 5.52643 32.9489C5.65013 30.7541 5.52643 29.1522 4.68705 27.3468C3.7328 25.267 2.42513 24.0722 1.62109 23.4881C1.5239 23.3996 1.40903 23.3288 1.29417 23.258C1.10862 24.1076 1.17047 25.4263 1.28534 26.1874C1.48855 27.7273 1.81547 29.0814 2.4428 30.4709Z" fill="white"/>
<path fill-rule="evenodd" clip-rule="evenodd" d="M4.00671 21.6562C4.23643 22.9306 4.81075 24.2138 6.08308 24.7714C6.10075 24.9042 6.24212 25.5237 6.25979 25.621C6.25979 25.7538 6.30397 25.9042 6.42767 25.8865C6.46301 25.8777 6.55137 25.8423 6.5602 25.7095C6.50719 25.3732 6.41 24.9927 6.34815 24.6298C6.77226 23.081 7.00198 21.665 6.9313 20.1517C6.81644 18.0188 6.02123 16.1691 4.76657 14.6823C4.66938 14.5761 4.59869 14.4611 4.51034 14.3637C4.15691 15.0983 3.92719 16.355 3.86534 17.1072C3.7328 18.6294 3.74164 20.1605 4.00671 21.6562Z" fill="white"/>
<path fill-rule="evenodd" clip-rule="evenodd" d="M7.21404 13.6114C7.1787 14.9213 7.49678 16.3904 8.5924 17.24C8.58356 17.3727 8.55706 18.0099 8.55706 18.0984C8.53938 18.2223 8.54822 18.3728 8.67192 18.3993C8.7161 18.3993 8.79562 18.3905 8.82212 18.2666C8.84863 17.9391 8.85747 17.4347 8.87514 17.0718C9.81171 15.4788 10.3153 13.7442 10.333 11.7618C10.3684 9.4696 9.80288 8.00933 9.35226 7.08892C9.29041 6.96502 9.22856 6.84112 9.16671 6.71722C8.67192 7.31903 8.20363 8.46954 7.99157 9.17755C7.56746 10.6113 7.25822 12.1069 7.21404 13.6114Z" fill="white"/>
<path fill-rule="evenodd" clip-rule="evenodd" d="M12.0736 6.26586C11.7909 7.49603 11.8704 9.30145 12.7893 10.0449C12.754 10.2042 12.6745 10.7529 12.6656 10.8768C12.6303 11.0095 12.6038 11.1334 12.7098 11.1865C12.754 11.2042 12.7893 11.2042 12.8423 11.0892C12.9042 10.744 12.9219 10.4608 12.9749 10.1068C14.2825 8.70849 15.0247 7.32788 15.44 5.44281C15.8553 3.46924 15.7934 1.90277 15.6167 0.796508C15.599 0.663757 15.5637 0.531006 15.5284 0.389405C14.3797 1.30981 13.5669 2.52228 12.8777 3.90289C12.5066 4.65515 12.215 5.42511 12.0736 6.26586Z" fill="white"/>
<path fill-rule="evenodd" clip-rule="evenodd" d="M8.0711 23.1164C7.96507 23.2138 7.38192 23.7713 7.24055 23.7005C7.2052 23.6651 7.1787 23.4793 7.24055 23.4439C7.46144 23.2669 7.74418 23.1341 7.96507 22.966C7.89438 21.904 8.13294 20.8243 9.09603 19.8154C10.5804 18.3728 12.5508 17.886 14.3444 17.1426C14.4239 17.1072 14.5034 17.063 14.6006 17.0276C14.583 17.0895 14.5741 17.1603 14.5476 17.2223C14.1942 18.4613 13.4873 19.9039 12.6303 20.8774C12.0736 21.5323 11.3226 22.1606 10.5362 22.5766C9.71452 23.0191 8.93699 23.1607 8.0711 23.1164Z" fill="white"/>
<path fill-rule="evenodd" clip-rule="evenodd" d="M6.83411 31.763C6.75459 31.9046 6.2863 32.6657 6.13609 32.6303C6.07424 32.6303 6.01239 32.4444 6.05657 32.3736C6.25096 32.117 6.49835 31.9134 6.66623 31.6479C6.36582 30.6744 6.50719 29.2673 7.23171 27.922C8.38034 25.9573 10.0591 25.0015 11.6849 23.6297C11.7556 23.5589 11.8262 23.497 11.9058 23.4173C11.9146 23.4793 11.9234 23.5501 11.9146 23.6297C11.8792 24.975 11.5258 26.6653 10.8985 27.9397C10.4921 28.7982 9.89123 29.6567 9.20206 30.3735C8.48637 31.0904 7.72651 31.5063 6.83411 31.763Z" fill="white"/>
<path fill-rule="evenodd" clip-rule="evenodd" d="M7.64699 40.2414C7.58514 40.4095 7.26705 41.3122 7.10801 41.3476C7.055 41.3388 6.94897 41.206 6.99315 41.1087C7.12568 40.8078 7.27589 40.4626 7.39959 40.1529C6.85178 39.6307 6.66623 38.1793 7.10801 36.6571C7.84137 34.4269 9.47596 32.7542 10.7925 30.9045C10.8543 30.816 10.9162 30.7275 10.978 30.639C10.9957 30.701 11.0045 30.7718 11.0222 30.8426C11.2519 32.1435 11.2342 33.8693 10.8808 35.2765C10.6423 36.2146 10.227 37.25 9.68801 38.135C9.13137 39.0732 8.4687 39.7192 7.64699 40.2414Z" fill="white"/>
<path fill-rule="evenodd" clip-rule="evenodd" d="M5.67664 50.1623C6.67507 50.8172 8.45986 51.3128 9.68801 50.5075C9.78521 50.5783 10.2977 50.888 10.3595 50.9411C10.4479 51.0296 10.5716 51.0916 10.6511 50.9677C10.6953 50.9146 10.7218 50.8261 10.6334 50.7287C10.3772 50.5517 10.0945 50.4367 9.82055 50.2597C8.88397 48.3126 7.87671 46.994 6.33048 46.0205C4.56335 44.8877 3.0878 44.87 2.14239 44.87C2.00986 44.87 1.87732 44.8788 1.74479 44.8788C1.97451 46.7993 4.3513 49.3393 5.67664 50.1623Z" fill="white"/>
<path fill-rule="evenodd" clip-rule="evenodd" d="M10.5804 48.6578C10.5716 48.7817 10.5097 49.3304 10.4214 49.6667C10.3949 49.7641 10.386 49.9057 10.2535 49.8526C10.2005 49.8437 10.1475 49.7287 10.1475 49.6756C10.2093 49.3481 10.2623 48.9764 10.2888 48.6489C9.67918 48.2595 9.20205 46.9851 9.10486 45.4187C9.21089 43.0557 10.2712 40.914 11.1194 38.6837C11.1459 38.5864 11.1812 38.4802 11.2166 38.374C11.2519 38.4271 11.2696 38.4802 11.3049 38.5333C11.8704 39.7015 12.3034 41.3388 12.3387 42.8167C12.374 43.7814 12.2327 44.9054 11.9499 45.9497C11.6495 47.0205 11.2077 47.8613 10.5804 48.6578Z" fill="white"/>
<path fill-rule="evenodd" clip-rule="evenodd" d="M11.084 58.2424C12.2327 58.4725 13.7877 58.4194 14.7597 57.1804C15.0071 57.2158 15.4047 57.2778 15.6609 57.2955C15.7316 57.3043 15.7846 57.2512 15.8111 57.1627C15.8288 57.1008 15.8111 57.0211 15.6962 56.9592C15.4047 56.8972 15.1131 56.8972 14.8038 56.8441C13.5138 55.3308 12.2945 54.4812 10.5362 54.1626C8.50404 53.7909 6.78109 54.313 5.86219 54.6936C5.73849 54.7378 5.60596 54.7909 5.49109 54.8529C5.81801 55.5874 6.77226 56.3397 7.37308 56.7025C8.52171 57.4636 9.69685 58.0123 11.084 58.2424Z" fill="white"/>
<path fill-rule="evenodd" clip-rule="evenodd" d="M15.1926 55.0476C15.2103 55.1803 15.228 55.7113 15.228 56.0653C15.2191 56.1627 15.2456 56.2954 15.1131 56.3043C15.0512 56.3043 14.9806 56.2246 14.9806 56.1627C14.954 55.8352 14.9717 55.4812 14.9187 55.1449C14.2384 54.9325 13.3371 53.8971 12.9219 52.4722C12.4447 50.1889 12.966 47.8347 13.2134 45.4187C13.2311 45.3125 13.2223 45.2063 13.2311 45.0912C13.2753 45.1355 13.3283 45.1797 13.3725 45.224C14.203 46.1355 15.0336 47.5427 15.4312 48.9233C15.7051 49.826 15.8464 50.9411 15.8464 52.012C15.8288 53.1359 15.599 54.0829 15.1926 55.0476Z" fill="white"/>
<path fill-rule="evenodd" clip-rule="evenodd" d="M21.6249 59.6939C21.6868 59.7912 21.7663 60.2337 21.8547 60.57C21.8812 60.6497 21.9342 60.7736 21.8105 60.8178C21.7486 60.8444 21.6691 60.7913 21.6514 60.7382C21.5366 60.455 21.5366 60.1541 21.3952 59.8709C20.7325 60.0302 19.5839 59.1894 18.8329 58.092C17.7903 56.1981 17.6754 53.9767 17.269 51.7199C17.2601 51.6137 17.2248 51.5164 17.2071 51.4102C17.2601 51.419 17.3132 51.4544 17.3662 51.4721C18.3646 51.9766 19.5044 52.8704 20.2377 53.9679C20.7414 54.6759 21.2097 55.6582 21.4747 56.6406C21.7486 57.676 21.7575 58.6584 21.6249 59.6939Z" fill="white"/>
<path fill-rule="evenodd" clip-rule="evenodd" d="M18.0112 63.9065C19.1863 63.7472 20.706 63.2074 21.3775 61.7028C21.6161 61.632 22.0314 61.5878 22.2788 61.517C22.3495 61.5081 22.3848 61.4285 22.3936 61.3311C22.3936 61.278 22.3583 61.1984 22.2346 61.1807C21.943 61.2249 21.6514 61.3134 21.3245 61.3488C19.6193 60.3399 18.2409 59.8797 16.4473 60.1364C14.3886 60.4284 12.8865 61.4639 12.0825 62.1276C11.9676 62.225 11.8527 62.3135 11.7467 62.4108C12.2415 63.0215 13.3548 63.4286 14.0175 63.6056C15.3163 63.9685 16.5886 64.1101 18.0112 63.9065Z" fill="white"/>
</svg>
