<svg width="29" height="65" viewBox="0 0 29 65" fill="none" xmlns="http://www.w3.org/2000/svg">
<path fill-rule="evenodd" clip-rule="evenodd" d="M1.44952 62.8002C11.2924 61.4373 18.4581 53.6935 21.7273 43.1088C23.0703 38.728 23.2647 33.8693 22.7964 28.7893C21.9305 19.718 17.7689 11.8414 11.6988 6.09771C11.6723 6.07116 11.6635 6.06231 11.6547 6.08886C11.637 6.11541 11.584 6.14196 11.5575 6.15966C11.5221 6.17736 11.5133 6.15966 11.5398 6.20391C17.981 12.1069 22.116 21.4969 22.5667 30.9842C23.2647 44.5337 16.691 56.5344 6.83926 60.6674C5.18699 61.3665 3.45521 61.8975 1.65274 62.1719C1.52904 62.3312 1.45836 62.5524 1.44952 62.8002Z" fill="white"/>
<path fill-rule="evenodd" clip-rule="evenodd" d="M25.9861 40.1706C25.182 41.1264 23.9008 42.0645 22.5225 41.7016C22.4518 41.8078 22.0895 42.3388 22.0365 42.4185C21.9747 42.5158 21.8598 42.6132 21.7715 42.5335C21.7184 42.4981 21.6743 42.4185 21.7273 42.2946C21.9305 42.0468 22.1249 41.7901 22.3546 41.5246C22.761 39.3741 23.353 37.9403 24.59 36.4889C26.0214 34.8251 27.4881 34.0817 28.3982 33.7719C28.5307 33.7365 28.6544 33.7011 28.7869 33.6569C28.8753 34.4888 28.4954 35.7013 28.195 36.3916C27.6118 37.8076 26.9756 39.0466 25.9861 40.1706Z" fill="white"/>
<path fill-rule="evenodd" clip-rule="evenodd" d="M14.1463 9.8767C14.2612 9.92095 14.9327 10.098 15.0122 9.9652C15.0387 9.9298 15.0034 9.79705 14.9415 9.7882C14.6941 9.76165 14.4202 9.74395 14.1817 9.69085C13.7487 8.32794 12.5471 7.73498 11.4426 7.50488C10.1173 7.23937 8.65939 7.64648 7.09549 7.86773C7.01597 7.88543 6.92761 7.89428 6.85693 7.89428C6.88343 7.94738 6.91877 7.98278 6.95412 8.03588C7.60795 8.92974 8.63289 9.7528 9.63131 10.1599C10.3028 10.4431 11.1069 10.6024 11.8932 10.5759C12.7238 10.5405 13.4218 10.3546 14.1463 9.8767Z" fill="white"/>
<path fill-rule="evenodd" clip-rule="evenodd" d="M11.5575 6.15081C11.5045 6.16851 11.5045 6.15081 11.4073 6.09771C11.2217 5.92071 11.0627 5.81451 10.8771 5.64636C9.81686 5.65521 8.8096 5.33661 7.85535 4.6994C7.43124 4.4162 7.00713 4.07104 6.65371 3.65509C5.80549 2.74353 5.12514 1.40716 4.8159 0.185852C4.79823 0.115052 4.78939 0.0708007 4.78056 0C4.86008 0.0354004 4.93076 0.0708018 5.01028 0.106202C6.72439 0.796509 8.38549 1.11511 9.76385 2.45148C10.7004 3.34534 11.1864 4.42505 10.992 5.46936C11.2041 5.63751 11.4249 5.79681 11.6282 5.99151C11.7165 6.07116 11.6105 6.15081 11.5575 6.15081Z" fill="white"/>
<path fill-rule="evenodd" clip-rule="evenodd" d="M17.7954 15.585C17.9103 15.647 18.5553 15.9833 18.6525 15.8682C18.6967 15.824 18.679 15.6824 18.6171 15.6558C18.3786 15.5673 18.0958 15.5054 17.8573 15.3992C17.7689 14.4345 17.2299 13.5318 16.1608 12.9123C14.5262 12.045 12.6708 12.1866 10.9213 12.0361C10.833 12.0273 10.7534 12.0273 10.6739 12.0184C10.7004 12.0715 10.7269 12.1158 10.7446 12.1689C11.3278 13.1778 12.2732 14.2663 13.2362 14.8859C13.8812 15.3195 14.6765 15.647 15.4717 15.8063C16.311 15.9744 17.0267 15.8771 17.7954 15.585Z" fill="white"/>
<path fill-rule="evenodd" clip-rule="evenodd" d="M26.3571 30.4709C25.827 31.6656 24.8728 32.9754 23.4767 33.0639C23.4326 33.1878 23.1763 33.7631 23.141 33.8516C23.1145 33.9755 23.0261 34.1083 22.9113 34.0552C22.8582 34.0375 22.8052 33.9666 22.8141 33.8427C22.9466 33.5241 23.1145 33.2763 23.2735 32.9489C23.1498 30.7541 23.2735 29.1522 24.1129 27.3468C25.0671 25.267 26.3748 24.0722 27.1789 23.4881C27.2761 23.3996 27.3909 23.3288 27.5058 23.258C27.6913 24.1076 27.6295 25.4263 27.5146 26.1874C27.3114 27.7273 26.9845 29.0814 26.3571 30.4709Z" fill="white"/>
<path fill-rule="evenodd" clip-rule="evenodd" d="M24.7932 21.6562C24.5635 22.9306 23.9892 24.2138 22.7169 24.7714C22.6992 24.9042 22.5578 25.5237 22.5402 25.621C22.5402 25.7538 22.496 25.9042 22.3723 25.8865C22.3369 25.8777 22.2486 25.8423 22.2397 25.7095C22.2928 25.3732 22.39 24.9927 22.4518 24.6298C22.0277 23.081 21.798 21.665 21.8687 20.1517C21.9835 18.0188 22.7787 16.1691 24.0334 14.6823C24.1306 14.5761 24.2013 14.461 24.2896 14.3637C24.643 15.0983 24.8728 16.355 24.9346 17.1072C25.0672 18.6294 25.0583 20.1605 24.7932 21.6562Z" fill="white"/>
<path fill-rule="evenodd" clip-rule="evenodd" d="M21.5859 13.6114C21.6213 14.9213 21.3032 16.3904 20.2076 17.24C20.2164 17.3727 20.2429 18.0099 20.2429 18.0984C20.2606 18.2223 20.2517 18.3728 20.128 18.3993C20.0839 18.3993 20.0043 18.3905 19.9778 18.2666C19.9513 17.9391 19.9425 17.4347 19.9248 17.0718C18.9882 15.4788 18.4846 13.7442 18.4669 11.7618C18.4316 9.4696 18.9971 8.00933 19.4477 7.08892C19.5095 6.96502 19.5714 6.84112 19.6332 6.71722C20.128 7.31903 20.5963 8.46954 20.8084 9.17755C21.2325 10.6113 21.5417 12.1069 21.5859 13.6114Z" fill="white"/>
<path fill-rule="evenodd" clip-rule="evenodd" d="M16.7263 6.26586C17.0091 7.49603 16.9295 9.30145 16.0106 10.0449C16.046 10.2042 16.1255 10.7529 16.1343 10.8768C16.1697 11.0095 16.1962 11.1334 16.0902 11.1865C16.046 11.2042 16.0106 11.2042 15.9576 11.0892C15.8958 10.744 15.8781 10.4608 15.8251 10.1068C14.5174 8.70849 13.7752 7.32787 13.3599 5.44281C12.9447 3.46924 13.0065 1.90277 13.1832 0.796508C13.2009 0.663757 13.2362 0.531006 13.2716 0.389405C14.4202 1.30981 15.2331 2.52228 15.9223 3.90289C16.2934 4.65515 16.5849 5.42511 16.7263 6.26586Z" fill="white"/>
<path fill-rule="evenodd" clip-rule="evenodd" d="M20.7289 23.1164C20.8349 23.2138 21.418 23.7713 21.5594 23.7005C21.5947 23.6651 21.6213 23.4793 21.5594 23.4439C21.3385 23.2669 21.0558 23.1341 20.8349 22.966C20.9056 21.904 20.667 20.8243 19.7039 19.8154C18.2195 18.3728 16.2492 17.886 14.4556 17.1426C14.376 17.1072 14.2965 17.063 14.1993 17.0276C14.217 17.0895 14.2258 17.1603 14.2523 17.2223C14.6058 18.4613 15.3126 19.9039 16.1697 20.8774C16.7263 21.5323 17.4773 22.1606 18.2637 22.5766C19.0854 23.0191 19.863 23.1607 20.7289 23.1164Z" fill="white"/>
<path fill-rule="evenodd" clip-rule="evenodd" d="M21.9658 31.763C22.0454 31.9046 22.5137 32.6657 22.6639 32.6303C22.7257 32.6303 22.7876 32.4444 22.7434 32.3736C22.549 32.117 22.3016 31.9134 22.1337 31.6479C22.4341 30.6744 22.2928 29.2673 21.5682 27.922C20.4196 25.9573 18.7408 25.0015 17.1151 23.6297C17.0444 23.5589 16.9737 23.497 16.8942 23.4173C16.8854 23.4793 16.8765 23.5501 16.8854 23.6297C16.9207 24.975 17.2741 26.6653 17.9015 27.9397C18.3079 28.7982 18.9087 29.6567 19.5979 30.3735C20.3136 31.0904 21.0734 31.5063 21.9658 31.763Z" fill="white"/>
<path fill-rule="evenodd" clip-rule="evenodd" d="M21.153 40.2414C21.2148 40.4095 21.5329 41.3122 21.6919 41.3476C21.745 41.3388 21.851 41.206 21.8068 41.1087C21.6743 40.8078 21.5241 40.4626 21.4004 40.1529C21.9482 39.6307 22.1337 38.1793 21.6919 36.6571C20.9586 34.4269 19.324 32.7542 18.0075 30.9045C17.9456 30.816 17.8838 30.7275 17.8219 30.639C17.8043 30.701 17.7954 30.7718 17.7778 30.8426C17.548 32.1435 17.5657 33.8693 17.9191 35.2765C18.1577 36.2146 18.573 37.25 19.1119 38.135C19.6686 39.0732 20.3313 39.7192 21.153 40.2414Z" fill="white"/>
<path fill-rule="evenodd" clip-rule="evenodd" d="M23.1233 50.1623C22.1249 50.8172 20.3401 51.3128 19.1119 50.5075C19.0147 50.5783 18.5023 50.888 18.4404 50.9411C18.3521 51.0296 18.2284 51.0916 18.1489 50.9677C18.1047 50.9146 18.0782 50.8261 18.1665 50.7287C18.4228 50.5517 18.7055 50.4367 18.9794 50.2597C19.916 48.3126 20.9232 46.994 22.4695 46.0205C24.2366 44.8877 25.7121 44.87 26.6576 44.87C26.7901 44.87 26.9226 44.8788 27.0552 44.8788C26.8254 46.7993 24.4487 49.3393 23.1233 50.1623Z" fill="white"/>
<path fill-rule="evenodd" clip-rule="evenodd" d="M18.2195 48.6578C18.2284 48.7817 18.2902 49.3304 18.3786 49.6667C18.4051 49.7641 18.4139 49.9057 18.5465 49.8526C18.5995 49.8437 18.6525 49.7287 18.6525 49.6756C18.5906 49.3481 18.5376 48.9764 18.5111 48.6489C19.1208 48.2595 19.5979 46.9851 19.6951 45.4187C19.5891 43.0557 18.5288 40.914 17.6806 38.6837C17.6541 38.5864 17.6187 38.4802 17.5834 38.374C17.548 38.4271 17.5304 38.4802 17.495 38.5333C16.9295 39.7015 16.4966 41.3388 16.4613 42.8167C16.4259 43.7814 16.5673 44.9054 16.85 45.9497C17.1504 47.0205 17.5922 47.8613 18.2195 48.6578Z" fill="white"/>
<path fill-rule="evenodd" clip-rule="evenodd" d="M17.7159 58.2424C16.5673 58.4725 15.0122 58.4194 14.0403 57.1804C13.7929 57.2158 13.3953 57.2778 13.1391 57.2955C13.0684 57.3043 13.0154 57.2512 12.9889 57.1627C12.9712 57.1008 12.9888 57.0211 13.1037 56.9592C13.3953 56.8972 13.6869 56.8972 13.9961 56.8441C15.2861 55.3308 16.5054 54.4812 18.2637 54.1626C20.2959 53.7909 22.0189 54.313 22.9378 54.6936C23.0615 54.7378 23.194 54.7909 23.3089 54.8529C22.9819 55.5874 22.0277 56.3397 21.4269 56.7025C20.2782 57.4636 19.1031 58.0123 17.7159 58.2424Z" fill="white"/>
<path fill-rule="evenodd" clip-rule="evenodd" d="M13.6073 55.0476C13.5897 55.1803 13.572 55.7113 13.572 56.0653C13.5808 56.1627 13.5543 56.2954 13.6869 56.3043C13.7487 56.3043 13.8194 56.2246 13.8194 56.1627C13.8459 55.8352 13.8282 55.4812 13.8812 55.1449C14.5616 54.9325 15.4628 53.8971 15.8781 52.4722C16.3552 50.1889 15.8339 47.8347 15.5865 45.4187C15.5689 45.3125 15.5777 45.2063 15.5688 45.0912C15.5247 45.1355 15.4717 45.1797 15.4275 45.224C14.5969 46.1355 13.7664 47.5427 13.3688 48.9233C13.0949 49.826 12.9535 50.9411 12.9535 52.012C12.9712 53.1359 13.2009 54.0829 13.6073 55.0476Z" fill="white"/>
<path fill-rule="evenodd" clip-rule="evenodd" d="M7.17501 59.6939C7.11316 59.7912 7.03364 60.2337 6.94528 60.57C6.91878 60.6497 6.86576 60.7736 6.98946 60.8178C7.05131 60.8444 7.13083 60.7913 7.1485 60.7382C7.26337 60.455 7.26337 60.1541 7.40474 59.8709C8.06741 60.0302 9.21604 59.1894 9.96707 58.092C11.0097 56.1981 11.1245 53.9767 11.531 51.7199C11.5398 51.6137 11.5751 51.5164 11.5928 51.4102C11.5398 51.419 11.4868 51.4544 11.4338 51.4721C10.4354 51.9766 9.29556 52.8704 8.5622 53.9679C8.05857 54.6759 7.59028 55.6582 7.32522 56.6406C7.05131 57.676 7.04247 58.6584 7.17501 59.6939Z" fill="white"/>
<path fill-rule="evenodd" clip-rule="evenodd" d="M10.7888 63.9065C9.61364 63.7472 8.09391 63.2073 7.42241 61.7028C7.18385 61.632 6.76857 61.5878 6.52117 61.517C6.45049 61.5081 6.41515 61.4285 6.40631 61.3311C6.40631 61.278 6.44165 61.1984 6.56535 61.1807C6.85693 61.2249 7.1485 61.3134 7.47542 61.3488C9.1807 60.3399 10.5591 59.8797 12.3527 60.1364C14.4114 60.4284 15.9134 61.4639 16.7175 62.1276C16.8323 62.225 16.9472 62.3135 17.0532 62.4108C16.5584 63.0215 15.4452 63.4286 14.7825 63.6056C13.4836 63.9685 12.2113 64.1101 10.7888 63.9065Z" fill="white"/>
</svg>
